<svg id="visual" viewBox="0 0 1920 1080" width="1920" height="1080" xmlns="http://www.w3.org/2000/svg" xmlns:xlink="http://www.w3.org/1999/xlink" version="1.1"><rect x="0" y="0" width="1920" height="1080" fill="#001220"></rect><path d="M0 710L45.7 721.3C91.3 732.7 182.7 755.3 274.2 771.2C365.7 787 457.3 796 548.8 781C640.3 766 731.7 727 823 700.3C914.3 673.7 1005.7 659.3 1097 675.8C1188.3 692.3 1279.7 739.7 1371.2 746.2C1462.7 752.7 1554.3 718.3 1645.8 711.5C1737.3 704.7 1828.7 725.3 1874.3 735.7L1920 746L1920 1081L1874.3 1081C1828.7 1081 1737.3 1081 1645.8 1081C1554.3 1081 1462.7 1081 1371.2 1081C1279.7 1081 1188.3 1081 1097 1081C1005.7 1081 914.3 1081 823 1081C731.7 1081 640.3 1081 548.8 1081C457.3 1081 365.7 1081 274.2 1081C182.7 1081 91.3 1081 45.7 1081L0 1081Z" fill="#fa7268"></path><path d="M0 719L45.7 730C91.3 741 182.7 763 274.2 778.8C365.7 794.7 457.3 804.3 548.8 803.8C640.3 803.3 731.7 792.7 823 781.3C914.3 770 1005.7 758 1097 755.5C1188.3 753 1279.7 760 1371.2 770.2C1462.7 780.3 1554.3 793.7 1645.8 789C1737.3 784.3 1828.7 761.7 1874.3 750.3L1920 739L1920 1081L1874.3 1081C1828.7 1081 1737.3 1081 1645.8 1081C1554.3 1081 1462.7 1081 1371.2 1081C1279.7 1081 1188.3 1081 1097 1081C1005.7 1081 914.3 1081 823 1081C731.7 1081 640.3 1081 548.8 1081C457.3 1081 365.7 1081 274.2 1081C182.7 1081 91.3 1081 45.7 1081L0 1081Z" fill="#ef5f67"></path><path d="M0 812L45.7 818.2C91.3 824.3 182.7 836.7 274.2 841.5C365.7 846.3 457.3 843.7 548.8 834.8C640.3 826 731.7 811 823 813.2C914.3 815.3 1005.7 834.7 1097 846.7C1188.3 858.7 1279.7 863.3 1371.2 874.2C1462.7 885 1554.3 902 1645.8 901.7C1737.3 901.3 1828.7 883.7 1874.3 874.8L1920 866L1920 1081L1874.3 1081C1828.7 1081 1737.3 1081 1645.8 1081C1554.3 1081 1462.7 1081 1371.2 1081C1279.7 1081 1188.3 1081 1097 1081C1005.7 1081 914.3 1081 823 1081C731.7 1081 640.3 1081 548.8 1081C457.3 1081 365.7 1081 274.2 1081C182.7 1081 91.3 1081 45.7 1081L0 1081Z" fill="#e34c67"></path><path d="M0 902L45.7 896.8C91.3 891.7 182.7 881.3 274.2 882.7C365.7 884 457.3 897 548.8 905C640.3 913 731.7 916 823 909.3C914.3 902.7 1005.7 886.3 1097 893.8C1188.3 901.3 1279.7 932.7 1371.2 947.8C1462.7 963 1554.3 962 1645.8 954.3C1737.3 946.7 1828.7 932.3 1874.3 925.2L1920 918L1920 1081L1874.3 1081C1828.7 1081 1737.3 1081 1645.8 1081C1554.3 1081 1462.7 1081 1371.2 1081C1279.7 1081 1188.3 1081 1097 1081C1005.7 1081 914.3 1081 823 1081C731.7 1081 640.3 1081 548.8 1081C457.3 1081 365.7 1081 274.2 1081C182.7 1081 91.3 1081 45.7 1081L0 1081Z" fill="#d53867"></path><path d="M0 951L45.7 955.2C91.3 959.3 182.7 967.7 274.2 971.2C365.7 974.7 457.3 973.3 548.8 981.3C640.3 989.3 731.7 1006.7 823 1010.7C914.3 1014.7 1005.7 1005.3 1097 1000C1188.3 994.7 1279.7 993.3 1371.2 987.2C1462.7 981 1554.3 970 1645.8 964.8C1737.3 959.7 1828.7 960.3 1874.3 960.7L1920 961L1920 1081L1874.3 1081C1828.7 1081 1737.3 1081 1645.8 1081C1554.3 1081 1462.7 1081 1371.2 1081C1279.7 1081 1188.3 1081 1097 1081C1005.7 1081 914.3 1081 823 1081C731.7 1081 640.3 1081 548.8 1081C457.3 1081 365.7 1081 274.2 1081C182.7 1081 91.3 1081 45.7 1081L0 1081Z" fill="#c62368"></path></svg>