<svg id="visual" viewBox="0 0 3840 2160" width="3840" height="2160" xmlns="http://www.w3.org/2000/svg" xmlns:xlink="http://www.w3.org/1999/xlink" version="1.1"><rect x="0" y="0" width="3840" height="2160" fill="#001220"></rect><path d="M0 1462L91.5 1465C183 1468 366 1474 548.8 1453.3C731.7 1432.7 914.3 1385.3 1097.2 1357C1280 1328.7 1463 1319.3 1645.8 1309C1828.7 1298.7 2011.3 1287.3 2194.2 1312.8C2377 1338.3 2560 1400.7 2742.8 1433.7C2925.7 1466.7 3108.3 1470.3 3291.2 1441C3474 1411.7 3657 1349.3 3748.5 1318.2L3840 1287L3840 2161L3748.5 2161C3657 2161 3474 2161 3291.2 2161C3108.3 2161 2925.7 2161 2742.8 2161C2560 2161 2377 2161 2194.2 2161C2011.3 2161 1828.7 2161 1645.8 2161C1463 2161 1280 2161 1097.2 2161C914.3 2161 731.7 2161 548.8 2161C366 2161 183 2161 91.5 2161L0 2161Z" fill="#fa7268"></path><path d="M0 1563L91.5 1558.7C183 1554.3 366 1545.7 548.8 1566.7C731.7 1587.7 914.3 1638.3 1097.2 1657.7C1280 1677 1463 1665 1645.8 1642.8C1828.7 1620.7 2011.3 1588.3 2194.2 1569.7C2377 1551 2560 1546 2742.8 1533.7C2925.7 1521.3 3108.3 1501.7 3291.2 1485.7C3474 1469.7 3657 1457.3 3748.5 1451.2L3840 1445L3840 2161L3748.5 2161C3657 2161 3474 2161 3291.2 2161C3108.3 2161 2925.7 2161 2742.8 2161C2560 2161 2377 2161 2194.2 2161C2011.3 2161 1828.7 2161 1645.8 2161C1463 2161 1280 2161 1097.2 2161C914.3 2161 731.7 2161 548.8 2161C366 2161 183 2161 91.5 2161L0 2161Z" fill="#ef5f67"></path><path d="M0 1721L91.5 1697.2C183 1673.3 366 1625.7 548.8 1609.8C731.7 1594 914.3 1610 1097.2 1627.7C1280 1645.3 1463 1664.7 1645.8 1657C1828.7 1649.3 2011.3 1614.7 2194.2 1608.3C2377 1602 2560 1624 2742.8 1647.3C2925.7 1670.7 3108.3 1695.3 3291.2 1700.5C3474 1705.7 3657 1691.3 3748.5 1684.2L3840 1677L3840 2161L3748.5 2161C3657 2161 3474 2161 3291.2 2161C3108.3 2161 2925.7 2161 2742.8 2161C2560 2161 2377 2161 2194.2 2161C2011.3 2161 1828.7 2161 1645.8 2161C1463 2161 1280 2161 1097.2 2161C914.3 2161 731.7 2161 548.8 2161C366 2161 183 2161 91.5 2161L0 2161Z" fill="#e34c67"></path><path d="M0 1851L91.5 1840C183 1829 366 1807 548.8 1806.3C731.7 1805.7 914.3 1826.3 1097.2 1832.2C1280 1838 1463 1829 1645.8 1813.7C1828.7 1798.3 2011.3 1776.7 2194.2 1792.5C2377 1808.3 2560 1861.7 2742.8 1884.5C2925.7 1907.3 3108.3 1899.7 3291.2 1887.2C3474 1874.7 3657 1857.3 3748.5 1848.7L3840 1840L3840 2161L3748.5 2161C3657 2161 3474 2161 3291.2 2161C3108.3 2161 2925.7 2161 2742.8 2161C2560 2161 2377 2161 2194.2 2161C2011.3 2161 1828.7 2161 1645.8 2161C1463 2161 1280 2161 1097.2 2161C914.3 2161 731.7 2161 548.8 2161C366 2161 183 2161 91.5 2161L0 2161Z" fill="#d53867"></path><path d="M0 1901L91.5 1911.3C183 1921.7 366 1942.3 548.8 1943.3C731.7 1944.3 914.3 1925.7 1097.2 1915.8C1280 1906 1463 1905 1645.8 1910.2C1828.7 1915.3 2011.3 1926.7 2194.2 1931.3C2377 1936 2560 1934 2742.8 1948.3C2925.7 1962.7 3108.3 1993.3 3291.2 2011.7C3474 2030 3657 2036 3748.5 2039L3840 2042L3840 2161L3748.5 2161C3657 2161 3474 2161 3291.2 2161C3108.3 2161 2925.7 2161 2742.8 2161C2560 2161 2377 2161 2194.2 2161C2011.3 2161 1828.7 2161 1645.8 2161C1463 2161 1280 2161 1097.2 2161C914.3 2161 731.7 2161 548.8 2161C366 2161 183 2161 91.5 2161L0 2161Z" fill="#c62368"></path></svg>